<svg xmlns="http://www.w3.org/2000/svg" viewBox="0 0 275 100">
  <defs>
    <linearGradient id="g" x1="0" y1="0" x2="1" y2="1">
      <stop offset="0%" stop-color="#60a5fa"/>
      <stop offset="100%" stop-color="#818cf8"/>
    </linearGradient>
  </defs>

  <!-- Dark rounded background -->
  <rect width="275" height="100" rx="16" fill="#1e1e2e"/>

  <!-- Bootstrap Icons "layers" glyph, scaled up -->
  <g transform="translate(20, 18) scale(4)">
    <path fill="url(#g)" d="M8.235 1.559a.5.5 0 0 0-.47 0l-7.5 4a.5.5 0 0 0 0 .882L3.188 8 .264 9.559a.5.5 0 0 0 0 .882l7.5 4a.5.5 0 0 0 .47 0l7.5-4a.5.5 0 0 0 0-.882L12.813 8l2.922-1.559a.5.5 0 0 0 0-.882zm3.515 7.008L14.438 10 8 13.433 1.562 10 4.25 8.567l3.515 1.874a.5.5 0 0 0 .47 0zM8 9.433 1.562 6 8 2.567 14.438 6z"/>
  </g>

  <!-- "AuRE" wordmark -->
  <text x="100" y="68" font-family="'Segoe UI','Helvetica Neue',Arial,sans-serif"
        font-size="56" font-weight="700" letter-spacing="-1">
    <tspan fill="#f1f5f9">Au</tspan><tspan fill="#60a5fa">RE</tspan>
  </text>
</svg>
